#N canvas 0 0 1440 817 10;
#X obj 406 637 dac~;
#X obj 263 180 tgl 15 0 empty empty empty 17 7 0 10 -262144 -1 -1 1
1;
#X floatatom 417 404 5 0 0 0 - - -;
#X obj 412 144 tgl 15 0 empty empty empty 17 7 0 10 -262144 -1 -1 0
1;
#X obj 413 194 metro 90;
#X obj 415 234 bng 15 250 50 0 empty empty empty 17 7 0 10 -262144
-1 -1;
#X obj 415 268 counter 0 0 15;
#X floatatom 414 319 5 0 0 0 - - -;
#X obj 419 437 sel 1;
#X obj 418 492 bng 15 250 50 0 empty empty empty 17 7 0 10 -262144
-1 -1;
#X floatatom 466 160 5 0 0 0 - - -;
#N canvas 388 163 713 326 bassdrum 0;
#N canvas 0 0 450 300 (subpatch) 0;
#X array bass_drum 2626 float 2;
#X coords 0 1 2626 -1 200 140 1;
#X restore 9 282 graph;
#N canvas 0 0 450 300 (subpatch) 0;
#X array bass 16 float 1;
#A 0 1 0 1 0 1 0 1 0 1 0 1 0 1 0 1 0;
#X coords 0 1 15 0 255 10 1 0 0;
#X restore 96 63 graph;
#X obj 230 284 unpack 0 0;
#X floatatom 230 337 5 0 0 0 - - -;
#X floatatom 283 336 5 0 0 0 - - -;
#X obj 96 74 tgl 15 0 empty empty empty 17 7 0 10 -258113 -1 -1 1 1
;
#X msg 146 197 \$1 5;
#X obj 192 74 tgl 15 0 empty empty empty 17 7 0 10 -262144 -1 -1 1
1;
#X obj 160 74 tgl 15 0 empty empty empty 17 7 0 10 -258113 -1 -1 1
1;
#X obj 176 74 tgl 15 0 empty empty empty 17 7 0 10 -262144 -1 -1 0
1;
#X obj 144 74 tgl 15 0 empty empty empty 17 7 0 10 -262144 -1 -1 0
1;
#X obj 112 74 tgl 15 0 empty empty empty 17 7 0 10 -262144 -1 -1 0
1;
#X obj 128 74 tgl 15 0 empty empty empty 17 7 0 10 -262144 -1 -1 1
1;
#X obj 208 74 tgl 15 0 empty empty empty 17 7 0 10 -262144 -1 -1 0
1;
#X obj 224 74 tgl 15 0 empty empty empty 17 7 0 10 -258113 -1 -1 1
1;
#X obj 240 74 tgl 15 0 empty empty empty 17 7 0 10 -262144 -1 -1 0
1;
#X obj 255 74 tgl 15 0 empty empty empty 17 7 0 10 -262144 -1 -1 1
1;
#X obj 271 74 tgl 15 0 empty empty empty 17 7 0 10 -262144 -1 -1 0
1;
#X obj 287 74 tgl 15 0 empty empty empty 17 7 0 10 -258113 -1 -1 1
1;
#X obj 303 74 tgl 15 0 empty empty empty 17 7 0 10 -262144 -1 -1 0
1;
#X obj 225 385 tgl 15 0 empty empty empty 17 7 0 10 -262144 -1 -1 0
1;
#X obj 335 74 tgl 15 0 empty empty empty 17 7 0 10 -262144 -1 -1 0
1;
#X obj 319 74 tgl 15 0 empty empty empty 17 7 0 10 -262144 -1 -1 1
1;
#X msg 64 196 \$1 1;
#X msg 107 157 \$1 2;
#X msg 103 197 \$1 3;
#X msg 146 158 \$1 4;
#X msg 177 160 \$1 6;
#X msg 184 196 \$1 7;
#X msg 214 160 \$1 8;
#X msg 225 195 \$1 9;
#X msg 255 159 \$1 10;
#X msg 268 195 \$1 11;
#X msg 304 159 \$1 12;
#X msg 315 194 \$1 13;
#X msg 353 160 \$1 14;
#X msg 361 191 \$1 15;
#X msg 68 157 \$1 0;
#X obj 379 293 bng 15 250 50 0 empty empty empty 17 7 0 10 -262144
-1 -1;
#X obj 380 325 openpanel;
#X obj 380 401 soundfiler;
#X msg 379 359 read -resize \$1 bass_drum;
#X obj 218 435 tabwrite bass;
#X connect 2 0 3 0;
#X connect 2 1 4 0;
#X connect 3 0 20 0;
#X connect 4 0 42 1;
#X connect 5 0 37 0;
#X connect 6 0 2 0;
#X connect 7 0 27 0;
#X connect 8 0 26 0;
#X connect 9 0 6 0;
#X connect 10 0 25 0;
#X connect 11 0 23 0;
#X connect 12 0 24 0;
#X connect 13 0 28 0;
#X connect 14 0 29 0;
#X connect 15 0 30 0;
#X connect 16 0 31 0;
#X connect 17 0 32 0;
#X connect 18 0 33 0;
#X connect 19 0 34 0;
#X connect 20 0 42 0;
#X connect 21 0 36 0;
#X connect 22 0 35 0;
#X connect 23 0 2 0;
#X connect 24 0 2 0;
#X connect 25 0 2 0;
#X connect 26 0 2 0;
#X connect 27 0 2 0;
#X connect 28 0 2 0;
#X connect 29 0 2 0;
#X connect 30 0 2 0;
#X connect 31 0 2 0;
#X connect 32 0 2 0;
#X connect 33 0 2 0;
#X connect 34 0 2 0;
#X connect 35 0 2 0;
#X connect 36 0 2 0;
#X connect 37 0 2 0;
#X connect 38 0 39 0;
#X connect 39 0 41 0;
#X connect 41 0 40 0;
#X coords 0 0 1 200 280 70 1 80 30;
#X restore 746 273 pd bassdrum;
#X text 388 433 bass;
#X obj 509 359 tabread hat;
#X obj 630 359 tabread snare;
#N canvas 962 217 450 361 hat 0;
#N canvas 0 0 450 300 (subpatch) 0;
#X array hi_hat 3086 float 2;
#X coords 0 1 3086 -1 200 140 1;
#X restore -32 270 graph;
#X obj 189 273 unpack 0 0;
#X floatatom 189 326 5 0 0 0 - - -;
#X floatatom 242 325 5 0 0 0 - - -;
#X obj 55 63 tgl 15 0 empty empty empty 17 7 0 10 -258113 -1 -1 1 1
;
#X msg 105 186 \$1 5;
#X obj 151 63 tgl 15 0 empty empty empty 17 7 0 10 -262144 -1 -1 0
1;
#X obj 119 63 tgl 15 0 empty empty empty 17 7 0 10 -258113 -1 -1 1
1;
#X obj 135 63 tgl 15 0 empty empty empty 17 7 0 10 -262144 -1 -1 0
1;
#X obj 103 63 tgl 15 0 empty empty empty 17 7 0 10 -262144 -1 -1 0
1;
#X obj 71 63 tgl 15 0 empty empty empty 17 7 0 10 -262144 -1 -1 0 1
;
#X obj 87 63 tgl 15 0 empty empty empty 17 7 0 10 -262144 -1 -1 0 1
;
#X obj 167 63 tgl 15 0 empty empty empty 17 7 0 10 -262144 -1 -1 0
1;
#X obj 183 63 tgl 15 0 empty empty empty 17 7 0 10 -258113 -1 -1 1
1;
#X obj 199 63 tgl 15 0 empty empty empty 17 7 0 10 -262144 -1 -1 0
1;
#X obj 214 63 tgl 15 0 empty empty empty 17 7 0 10 -262144 -1 -1 0
1;
#X obj 230 63 tgl 15 0 empty empty empty 17 7 0 10 -262144 -1 -1 0
1;
#X obj 246 63 tgl 15 0 empty empty empty 17 7 0 10 -258113 -1 -1 1
1;
#X obj 262 63 tgl 15 0 empty empty empty 17 7 0 10 -262144 -1 -1 0
1;
#X obj 184 374 tgl 15 0 empty empty empty 17 7 0 10 -262144 -1 -1 1
1;
#X obj 294 63 tgl 15 0 empty empty empty 17 7 0 10 -262144 -1 -1 0
1;
#X obj 278 63 tgl 15 0 empty empty empty 17 7 0 10 -262144 -1 -1 0
1;
#X msg 23 185 \$1 1;
#X msg 66 146 \$1 2;
#X msg 62 186 \$1 3;
#X msg 105 147 \$1 4;
#X msg 136 149 \$1 6;
#X msg 143 185 \$1 7;
#X msg 173 149 \$1 8;
#X msg 184 184 \$1 9;
#X msg 214 148 \$1 10;
#X msg 227 184 \$1 11;
#X msg 263 148 \$1 12;
#X msg 274 183 \$1 13;
#X msg 312 149 \$1 14;
#X msg 320 180 \$1 15;
#X msg 27 146 \$1 0;
#X obj 335 281 bng 15 250 50 0 empty empty empty 17 7 0 10 -262144
-1 -1;
#X obj 339 314 openpanel;
#X obj 339 390 soundfiler;
#N canvas 0 0 450 300 (subpatch) 0;
#X array hat 16 float 1;
#A 0 1 0 0 0 1 0 0 0 1 0 0 0 1 0 0 0;
#X coords 0 1 15 0 255 10 1 0 0;
#X restore 54 51 graph;
#X obj 178 424 tabwrite hat;
#X msg 338 349 read -resize \$1 hi_hat;
#X connect 1 0 2 0;
#X connect 1 1 3 0;
#X connect 2 0 19 0;
#X connect 3 0 41 1;
#X connect 4 0 36 0;
#X connect 5 0 1 0;
#X connect 6 0 26 0;
#X connect 7 0 25 0;
#X connect 8 0 5 0;
#X connect 9 0 24 0;
#X connect 10 0 22 0;
#X connect 11 0 23 0;
#X connect 12 0 27 0;
#X connect 13 0 28 0;
#X connect 14 0 29 0;
#X connect 15 0 30 0;
#X connect 16 0 31 0;
#X connect 17 0 32 0;
#X connect 18 0 33 0;
#X connect 19 0 41 0;
#X connect 20 0 35 0;
#X connect 21 0 34 0;
#X connect 22 0 1 0;
#X connect 23 0 1 0;
#X connect 24 0 1 0;
#X connect 25 0 1 0;
#X connect 26 0 1 0;
#X connect 27 0 1 0;
#X connect 28 0 1 0;
#X connect 29 0 1 0;
#X connect 30 0 1 0;
#X connect 31 0 1 0;
#X connect 32 0 1 0;
#X connect 33 0 1 0;
#X connect 34 0 1 0;
#X connect 35 0 1 0;
#X connect 36 0 1 0;
#X connect 37 0 38 0;
#X connect 38 0 42 0;
#X connect 42 0 39 0;
#X coords 0 -1 1000 1 280 80 1 40 20;
#X restore 747 192 pd hat;
#X msg 264 216 \; pd dsp \$1;
#X obj 414 360 tabread bass;
#N canvas 0 0 1440 817 snaredrum 0;
#N canvas 0 0 450 300 (subpatch) 0;
#X array snare_drum 7864 float 2;
#X coords 0 1 7864 -1 200 140 1;
#X restore 5 282 graph;
#N canvas 0 0 450 300 (subpatch) 0;
#X array snare 16 float 1;
#A 0 0 0 0 0 1 0 0 0 0 0 0 0 1 0 0 0;
#X coords 0 1 15 0 255 10 1 0 0;
#X restore 96 63 graph;
#X obj 230 284 unpack 0 0;
#X floatatom 230 337 5 0 0 0 - - -;
#X floatatom 283 336 5 0 0 0 - - -;
#X obj 96 74 tgl 15 0 empty empty empty 17 7 0 10 -258113 -1 -1 0 1
;
#X msg 146 197 \$1 5;
#X obj 192 74 tgl 15 0 empty empty empty 17 7 0 10 -262144 -1 -1 0
1;
#X obj 160 74 tgl 15 0 empty empty empty 17 7 0 10 -258113 -1 -1 1
1;
#X obj 176 74 tgl 15 0 empty empty empty 17 7 0 10 -262144 -1 -1 0
1;
#X obj 144 74 tgl 15 0 empty empty empty 17 7 0 10 -262144 -1 -1 0
1;
#X obj 112 74 tgl 15 0 empty empty empty 17 7 0 10 -262144 -1 -1 0
1;
#X obj 128 74 tgl 15 0 empty empty empty 17 7 0 10 -262144 -1 -1 0
1;
#X obj 208 74 tgl 15 0 empty empty empty 17 7 0 10 -262144 -1 -1 0
1;
#X obj 224 74 tgl 15 0 empty empty empty 17 7 0 10 -258113 -1 -1 0
1;
#X obj 240 74 tgl 15 0 empty empty empty 17 7 0 10 -262144 -1 -1 0
1;
#X obj 255 74 tgl 15 0 empty empty empty 17 7 0 10 -262144 -1 -1 0
1;
#X obj 271 74 tgl 15 0 empty empty empty 17 7 0 10 -262144 -1 -1 0
1;
#X obj 287 74 tgl 15 0 empty empty empty 17 7 0 10 -258113 -1 -1 1
1;
#X obj 303 74 tgl 15 0 empty empty empty 17 7 0 10 -262144 -1 -1 0
1;
#X obj 225 385 tgl 15 0 empty empty empty 17 7 0 10 -262144 -1 -1 0
1;
#X obj 335 74 tgl 15 0 empty empty empty 17 7 0 10 -262144 -1 -1 0
1;
#X obj 319 74 tgl 15 0 empty empty empty 17 7 0 10 -262144 -1 -1 0
1;
#X msg 64 196 \$1 1;
#X msg 107 157 \$1 2;
#X msg 103 197 \$1 3;
#X msg 146 158 \$1 4;
#X msg 177 160 \$1 6;
#X msg 184 196 \$1 7;
#X msg 214 160 \$1 8;
#X msg 225 195 \$1 9;
#X msg 255 159 \$1 10;
#X msg 268 195 \$1 11;
#X msg 304 159 \$1 12;
#X msg 315 194 \$1 13;
#X msg 353 160 \$1 14;
#X msg 361 191 \$1 15;
#X msg 68 157 \$1 0;
#X obj 379 293 bng 15 250 50 0 empty empty empty 17 7 0 10 -262144
-1 -1;
#X obj 380 325 openpanel;
#X obj 380 401 soundfiler;
#X msg 379 359 read -resize \$1 snare_drum;
#X obj 218 435 tabwrite snare;
#X connect 2 0 3 0;
#X connect 2 1 4 0;
#X connect 3 0 20 0;
#X connect 4 0 42 1;
#X connect 5 0 37 0;
#X connect 6 0 2 0;
#X connect 7 0 27 0;
#X connect 8 0 26 0;
#X connect 9 0 6 0;
#X connect 10 0 25 0;
#X connect 11 0 23 0;
#X connect 12 0 24 0;
#X connect 13 0 28 0;
#X connect 14 0 29 0;
#X connect 15 0 30 0;
#X connect 16 0 31 0;
#X connect 17 0 32 0;
#X connect 18 0 33 0;
#X connect 19 0 34 0;
#X connect 20 0 42 0;
#X connect 21 0 36 0;
#X connect 22 0 35 0;
#X connect 23 0 2 0;
#X connect 24 0 2 0;
#X connect 25 0 2 0;
#X connect 26 0 2 0;
#X connect 27 0 2 0;
#X connect 28 0 2 0;
#X connect 29 0 2 0;
#X connect 30 0 2 0;
#X connect 31 0 2 0;
#X connect 32 0 2 0;
#X connect 33 0 2 0;
#X connect 34 0 2 0;
#X connect 35 0 2 0;
#X connect 36 0 2 0;
#X connect 37 0 2 0;
#X connect 38 0 39 0;
#X connect 39 0 41 0;
#X connect 41 0 40 0;
#X coords 0 0 1 200 280 70 1 80 30;
#X restore 746 344 pd snaredrum;
#X obj 497 640 dac~;
#X floatatom 508 407 5 0 0 0 - - -;
#X obj 510 440 sel 1;
#X obj 509 495 bng 15 250 50 0 empty empty empty 17 7 0 10 -262144
-1 -1;
#X text 479 436 bass;
#X obj 614 644 dac~;
#X floatatom 625 411 5 0 0 0 - - -;
#X obj 627 444 sel 1;
#X obj 626 499 bng 15 250 50 0 empty empty empty 17 7 0 10 -262144
-1 -1;
#X text 596 440 bass;
#X obj 621 589 tabplay~ snare_drum;
#X obj 398 582 tabplay~ bass_drum;
#X obj 515 583 tabplay~ hi_hat;
#X connect 1 0 16 0;
#X connect 2 0 8 0;
#X connect 3 0 4 0;
#X connect 4 0 5 0;
#X connect 5 0 6 0;
#X connect 6 0 7 0;
#X connect 7 0 13 0;
#X connect 7 0 14 0;
#X connect 7 0 17 0;
#X connect 8 0 9 0;
#X connect 9 0 30 0;
#X connect 10 0 4 1;
#X connect 13 0 20 0;
#X connect 14 0 25 0;
#X connect 17 0 2 0;
#X connect 20 0 21 0;
#X connect 21 0 22 0;
#X connect 22 0 31 0;
#X connect 25 0 26 0;
#X connect 26 0 27 0;
#X connect 27 0 29 0;
#X connect 29 0 24 0;
#X connect 29 0 24 1;
#X connect 30 0 0 0;
#X connect 30 0 0 1;
#X connect 31 0 19 0;
#X connect 31 0 19 1;
