#N canvas -8 -8 1440 817 10;
#N canvas 0 0 450 300 (subpatch) 0;
#X array snd 56840 float 2;
#X coords 0 1 56840 -1 200 140 1;
#X restore 244 288 graph;
#X obj 266 79 bng 15 250 50 0 empty empty empty 17 7 0 10 -262144 -1
-1;
#X obj 267 111 openpanel;
#X msg 266 146 read -resize \$1 snd;
#X obj 267 187 soundfiler;
#X obj 486 76 bng 15 250 50 0 empty empty empty 17 7 0 10 -262144 -1
-1;
#X obj 484 106 tabplay~ snd;
#X obj 477 161 dac~;
#X obj 608 80 tgl 15 0 empty empty empty 17 7 0 10 -262144 -1 -1 1
1;
#X msg 608 116 \; pd dsp \$1;
#X connect 1 0 2 0;
#X connect 2 0 3 0;
#X connect 3 0 4 0;
#X connect 5 0 6 0;
#X connect 6 0 7 0;
#X connect 6 0 7 1;
#X connect 8 0 9 0;
