#N canvas 0 0 1440 817 10;
#X msg 406 278 261.6;
#X msg 483 274 293.6;
#X msg 583 275 329.6;
#X obj 479 349 osc~;
#X obj 466 451 dac~;
#X obj 493 170 hradio 16 1 0 3 empty empty empty 0 -8 0 10 -262144
-1 -1 0;
#X obj 497 219 sel 0 1 2;
#X connect 0 0 3 0;
#X connect 1 0 3 0;
#X connect 2 0 3 0;
#X connect 3 0 4 0;
#X connect 3 0 4 1;
#X connect 5 0 6 0;
#X connect 6 0 0 0;
#X connect 6 1 1 0;
#X connect 6 2 2 0;
